<svg xmlns="http://www.w3.org/2000/svg" xml:space="preserve" width="135.45mm" height="119.974mm" style="shape-rendering:geometricPrecision;text-rendering:geometricPrecision;image-rendering:optimizeQuality;fill-rule:evenodd;clip-rule:evenodd" viewBox="0 0 556.14 492.6"><path d="M186.83 249.29c-4.42 0-9.78-.85-9.78-8.69v-66.26h18.47v65.17c0 5.25-3.08 9.78-8.69 9.78zM357.36 74.41c0 11.33 21.72 11.33 21.72 0 0-12.35-21.72-11.4-21.72 0zm14.12 27.16c0 11.78 22.81 11.78 22.81 0 0-11.62-22.81-11.62-22.81 0zM228.1 213.45c0 5.25 3.44 8.69 8.69 8.69h52.14c13.01 0 13.01-17.38 0-17.38h-49.97c-6.48 0-10.86 2.22-10.86 8.69zm129.26 174.88v-43.45c0-18.25 19.55-13.46 19.55-5.43v52.14c0 11.59-19.55 13.03-19.55-3.26zm-16.29-48.88v53.22c0 31.86 53.22 34.37 53.22-2.17v-49.97c0-11.74-12.14-24.98-23.9-24.98h-5.43c-11.67 0-23.9 12.22-23.9 23.9zm215.07 55.4v9.53c-.19 12.32-1.95 22.55-14.83 33.21-9.75 8.07-16.92 9.4-34.05 9.4-3.12 5.9-7.28 11.44-11.08 17.16-12.73 19.19-25.8 28.46-54.09 28.46H112.97c-20.11 0-30.25-4.47-41.92-13.47-6.05-4.67-19.43-24.93-23.25-32.15-17.25 0-23.9-1.85-33.56-9.89C.81 425.92.04 415.13.01 401.08v-4.05c0-19.16 31.34-14.12 43.45-14.12-.86-3.68-2.08-4.63-3-7.86-3.11-10.92-.58-19.39 5.17-27.98-18.78-4.37-31.54-38.74-6.86-56.82 10.55-7.73 17.06-6.18 34.01-6.18-4.07-17.49.37-15.33 1.09-23.9-8.48-2.27-16.29-13.82-16.29-24.98 0-9.79.53-6.01 2.17-13.03-29.43 0-46.08-31.29-25.78-55.1 8.8-10.32 20.78-10.07 33.38-10.07 0-11.49.09-18.88 8.38-27.47 4.25-4.41 11.74-9.46 19.86-9.46 9.43 0 20.64-2.06 20.64 8.69 0 8.82-8.57 8.69-17.43 8.64-15.6-.09-14.07 10.52-14.07 19.6h86.9l-1.09-19.55c-16.62 0-35.84 3.47-35.84-8.69 0-13.06 20.27-8.69 36.93-8.69 3.63-15.6 19.77-19.55 34.76-19.55h69.52c14.54 0 22.83 1.81 30.61 11.75.55.7 1.28 1.82 1.73 2.62 3.73 6.61-1.97 5.18 19.8 5.18V84.22c0-25.36 21.49-48.88 51.05-48.88-4.97-21.33 6.82-35.3 23.9-35.3 18.07 0 28.24 16.61 28.24 34.22 36.3 0 40.16 33.41 25.79 46.42-8.77 7.94-15.9 7.33-26.87 5.71 0 15.16-6.3 23.61-13.03 33.67 25.51.57 22.81 25.68 22.81 38.02 6.17.51 9.33 3.11 13.38 6.17 4.08 3.09 6.37 5.98 8.75 10.8 4.93 9.99 4.56 20.35-.41 29.74 48.84 0 39.9 49.96 19.55 55.4.71 8.5 5.14 6.49 1.09 23.9 17.59 0 23.9-1.34 34.63 6.64 23.51 17.47 11.53 51.93-7.48 56.36 12.37 18.47 4.02 27.89 2.17 35.84 11.73 0 33.77-2.01 39.58 2.78 2.73 2.25 4.95 4.79 4.95 9.17zM341.07 256.9c-5.37 0-9.78-4.41-9.78-9.78v-72.78h52.14v39.1c0 18.59-17.09 18.62-22.55 19.81-15.15 3.31-5.13 23.64-19.81 23.64zm80.38-43.45c0 12.74 23.34 8.7 35.84 8.69 8.12-.01 15.33-1.06 19.7 3.11 4.06 3.88 4.97 10.72 1.65 16.05-5.52 8.85-26.26 5.82-39.81 5.82-7.01 0-27.25-1.38-33.42.25-6.71 1.78-7.89 11.91-1.57 15.18 2.63 1.36 6.29.92 9.98.88 7.24-.08 14.5-.02 21.74-.02 14.12 0 31.5-3.33 31.5 10.86 0 7.74-7.3 9.81-14.06 9.84-8.32.03-16.74 0-25.06-.08-6.72-.06-15.39-.18-14.87 8.56.53 8.9 10.36 7.78 17.06 7.75 11.6-.05 63.39-1.84 72.33 1.53 15.99 6.02 12.48 30.74-6 31.12l-60.89-.06c-14.7 0-24.98-3.39-24.98 10.86 0 8.88 15.3 6.52 20.64 6.52 13.44-.01 42.63-1.46 54.22.09 19.37 2.58 16.56 30.97-3.18 32.48-20.23 1.55-45.41-2.51-65.11.06-9.86 1.29-9.26 16.24 1.04 16.24h121.66c0 17.08-7.18 30.52-24.94 30.45l-358.49-.04c-6.86 0-19.46-.61-24.14.84-7.38 2.28-9.06 10.09-3.42 14.77 4.28 3.55 41.37 1.77 49.29 1.77h308.48c-3.11 11.66-19.45 28.24-36.93 28.24H105.38c-17.48 0-33.82-16.58-36.93-28.24 22.92 0 39.1 3.86 39.1-9.78 0-3.46-4.58-6.48-7.98-7.23-8.06-1.79-36.97-.38-46.33-.38-13.96 0-18.02 1.59-27-4.5-7.41-5.02-9.93-15.58-9.93-25.91h300.88c2.71 0 3.18-.2 4.91-1.61 4.82-3.93 4.76-14.77-8.09-14.76l-236.91.12c-22.13.07-26.33-20.44-14.31-29.6 4.61-3.51 7.78-3.09 15.43-3.04l218.34.01c12.2 0 28.24 3.25 28.24-8.69 0-12-17.64-8.69-29.33-8.69H67.37c-7.75.01-12.45.96-17.41-2.14-10.38-6.48-9.74-23 1.13-28.26 8.91-4.31 56.61-2.19 68.42-2.19 17.57 0 266.08 1.42 271.05-.51 8.29-3.22 6.24-15.66-5.94-15.86-47.78-.77-95.66.07-143.45.07-17.44 0-127.84 1.21-142.3 0-5.73-.48-10.86-3.77-10.86-9.78 0-20.42 39.12-5.87 53.65-11.53 7.35-2.86 7.62-15.68-6.88-15.69-11.24-.01-22.49.06-33.73.06-11.63 0-21.57 1.19-25.37-7.27-4.02-8.98 1.38-17.31 11.19-17.76 13.86-.63 36.27 1.68 48.86-.02 9.75-1.31 11.66-14.07 1.82-16.89-6.96-2-66.74-.13-78.93-.37-21.35-.41-20.98-30.47-3.21-30.47h104.28v65.17c0 23.12 27.44 35.57 44.25 20.35 3.46-3.13 7.89-10.78 7.89-17.1v-68.43h102.1v68.43c0 13.22 4.7 22.97 15.14 28.31 9.63 4.92 21.95 2.76 29.69-4.12 4.27-3.8 8.4-9.95 8.4-17.67 10.82 0 20.76-6.98 25.64-13.46 11.14-14.78 8.03-42.35 8.03-61.49h34.76c15.61 0 17.3 24.93 2.56 29.71-7.81 2.53-16.68-1.07-16.68 9.39zm-109.71-66.26v-9.78h106.45c6.26 0 4.34 9.38 4.34 19.55H310.65c.11-4.91 1.09-4.32 1.09-9.78zm-27.16 9.78h-86.9c-13.72 0-10.86-16.33-10.86-28.24 0-6.1 4.76-10.86 10.86-10.86h86.9c13.06 0 10.86 17.05 10.86 26.07 0 7.01-4.07 13.03-10.86 13.03zm94.5-36.93h-29.33c-2.54 0-4.34-1.8-4.34-4.34V82.03c0-15.44 16.91-30.41 32.59-30.41 18.51 0 34.76 14.46 34.76 32.59 0 12.45-1.28 17.04-10.57 26.36-5.39 5.41-12.89 9.48-23.1 9.48zm42.36-65.17c27.17-14.38 32.92 15.21 18.47 15.21-7.23 0-15.36-9.3-18.47-15.21zm-27.15-28.24c0-11.61 11.58-12.22 16.4-5.54 5.32 7.38 3.56 15.82-1.19 22.92-2.89-1.93-15.21-13.75-15.21-17.38z" style="fill:current"/></svg>