<svg xmlns="http://www.w3.org/2000/svg" xml:space="preserve" width="135.45mm" height="132.156mm" style="shape-rendering:geometricPrecision;text-rendering:geometricPrecision;image-rendering:optimizeQuality;fill-rule:evenodd;clip-rule:evenodd" viewBox="0 0 499.35 487.21"><path d="M61.44 446.25h375.49c-.83 3.11-3.53 6.37-5.45 9.18-1.4 2.05-1.53 2.02-2.92 3.91-5.12 6.97-14.47 12.27-24.79 12.27H94.6c-9.42 0-15.37-3.9-21.08-8.18-3.34-2.51-6.87-8.45-9.36-12.1l-2.73-5.08zm368.66-343.3c0 7.08.83 4.19 3.9 8.78h56.57c9.36 0 9.36-14.63 0-14.63h-53.64c-4.88 0-6.83 4.01-6.83 5.85zm69.25 297.6v11.3c-.74 6.42-2.52 12.45-4.27 15.5-3.5 6.1-8.61 11.23-14.9 14.36-8.3 4.14-14.6 4.54-24.72 4.54-2.8 5.29-6.54 10.29-9.95 15.41-11.75 17.65-23.78 25.55-48.57 25.55H101.42c-25.19 0-37.01-8.21-48.96-26.14-3.3-4.95-6.85-9.71-9.56-14.82-8.26 0-11.6.24-17.71-1.79-2.62-.87-4.5-1.96-6.69-3.06-3.5-1.76-2.91-1.84-5.68-4.07-3.38-2.72-2.05-1.73-4.79-4.96C4.17 427.83 1 420 0 412.2v-9.54c1.19-7.84 5.74-13.95 15.6-13.95 8.52 0 26.33-3.41 26.33 7.8 0 2.89-2.59 4.86-3.9 6.83-4.55 0-9.11.02-13.66 0-4.51-.03-9.75-1.37-9.75 2.93 0 11.79 6.81 24.38 19.51 24.38h431.08c5.99 0 10.64-2.98 14.09-7.37 4.09-5.2 5.42-12.3 5.42-19.94H65.34c-6.43 0-8.83-6.48-6.22-11.04 2.9-5.05 9.57-3.59 16.95-3.59 3.86-16.56 5.32-26.44 15.21-41.36 5.74-8.66 12.28-16.09 20.15-22.76 3.05-2.59 5.33-2.78 7.55-6.1-4.86-.4-9.43-2.87-11.74-5.81-6.38-8.1-7.9-39.05 12.72-39.05h46.81v-39.99c-10.68.24-17.6 3.48-26.59-6.57-7.36-8.22-6.57-18.54-6.57-29.52 0-6.86 7.89-10.17 12.69-5.86 7.63 6.85-3.33 27.32 10.72 27.32 5.88 0 9.75-2.39 9.75-8.78V23.95c0-4.82-3.96-8.78-8.78-8.78-4.9 0-5.66 2.79-8.78 4.88v134.59c0 7.52 1.1 15.53-4.35 18.13-12.81 6.11-11.25-12.7-11.25-17.16-8.45.7-15.25 1.96-23.04-3.3-2.75-1.86-5.34-4.13-6.22-7.43-6.5 0-13-.01-19.51 0-2.39 0-7.53.27-9.6-.15-3.01-.61-3.66-2.18-6-3.75v-7.8c3.38-2.27 3.71-3.9 9.75-3.9h21.46v-18.53H77.04c-4.43 0-5.09-2.08-7.8-3.9v-7.8c2.71-1.82 3.37-3.9 7.8-3.9h23.41V74.67c-8.71 0-31.21 3.4-31.21-7.8 0-3.8 1.71-4.53 3.9-7.8h27.31V40.54H77.04c-4.43 0-5.09-2.08-7.8-3.9v-7.8c2.71-1.82 3.37-3.9 7.8-3.9h23.41c0-18.54 18.53-33.55 40.96-18.53 7.82-5.24 16.35-8.59 25.98-4.53 2.5 1.05 5.14 3.16 7.18 4.53 2.5-1.67 2.69-2.47 5.82-3.93 16.54-7.69 33.56 3.46 35.14 22.46 24.55 0 49.31-3.52 69.83 10.14 4.56 3.03 8.04 6.02 11.3 10.15 2.08 2.63 6.77 9.7 7.62 12.86h189.21c1.46 2.18 3.9 3.43 3.9 5.85 0 6.77-3.31 9.75-10.73 9.75H305.25c-7.73 0-10.54-1.73-13.34-7.14-7.07-13.64-17.19-26.02-35.42-26.02h-40.96v88.75h40.96c10.27 0 19.79-5.63 25.13-10.96 3.27-3.26 5.76-6.6 8.02-10.51 1.08-1.87 1.85-4.08 2.93-5.84 1.34-2.19 2.41-2.64 3.91-4.87h113.13c1.46 2.18 3.9 3.43 3.9 5.85 0 4.88-1.15 4.68-3.9 8.78H304.28c-.92 3.45-5.75 10.66-8.06 13.4-12.16 14.41-28.63 19.76-47.54 19.76v100.46c31.65 0 35.38 8.58 48.76 11.7.21-9.58 8.12-20.5 14.04-24.97 23.61-17.83 57.13-11.4 69.18 16.84 3.58 8.4-.98 5.22 7.09 10.47 26.81 17.44 23.22 53.39 1.36 64.96 3.4 5.08 8.45 7.96 12.29 13.07 10.91 14.57 21.85 30.95 21.85 51.3h65.34c6.68 0 9.76 5.18 10.73 11.84zm-173.6-19.64c5.97 0 14.89 1.47 16.58 7.8h-31.21c2.76-4.13 7.79-7.8 14.63-7.8zm-154.1 0c4.85 0 7.11-.13 11.34 2.32 4.96 2.87 4.58 3.01 5.24 5.48h-31.21c2.76-4.13 7.79-7.8 14.63-7.8zm-55.59-15.6c-1.69 7.26-7.8 13.27-7.8 23.41H91.68c.1-4.51 1.98-9.57 2.93-13.65l21.46-9.75zm267.23-.98c4.32 1.01 12.39 5.75 16.58 7.8 7.59 3.7 5.48 2.42 8.78 16.58h-16.58c-.36-4.36-3.93-14.92-5.87-18.52-1.48-2.76-1.96-1.79-2.91-5.87zm-88.75 24.38h-16.58c.92-11.1 14.51-28.5 19.71-29.6.79-.17 11.73.85 22.04-1.8 15.95-4.09 21.6-8.51 35.12.37 4.32 2.84 6.18 4.12 9.71 7.84 4.18 4.4 11.31 15.76 11.92 23.19h-16.58c-5.37-23.03-43.75-33.69-60.49-9.77-2.41 3.45-3.73 4.95-4.86 9.77zm-154.1 0h-16.58c.27-12.09 17.48-36.09 37.06-36.09 5.48 0 17.93 4.29 30.01 6.08 10.39 1.54 13.27-2.86 24.05 13.01 3.25 4.79 5.96 10.87 7.39 17h-16.58c-1.42-6.07-6.73-12.34-11.43-15.88-25.91-19.51-52.86 3.21-53.91 15.88zm-24.38-23.41v-.98l1.14.81-1.14.16zm267.23-.98h-.98l.81-1.14.16 1.14zM262.35 388.7h-16.58c1.74-20.89 12.25-30.94 17.56-40.96 5.96 1.39 9.65 5.44 15.6 6.83-3.38 5.05-7.29 9.04-10.42 14.94-2.32 4.37-6.03 13.28-6.16 19.19zm-40.96-34.14c12.91-1.07 10.92-12.82 19.51 0-2 3.77-6.45 14.05-6.83 18.53l-12.68-18.53zm-114.11-2.93v.98l-1.14-.81 1.14-.16zm215.54-33.16c23.87 0 38.11 4.07 55.42 17.72 1.6 1.26 1.58.91 3.35 2.5l11.45 12.93c-9.01-2.1-34.64-22.6-68.17-11.6-16.92 5.55-32.64 5.56-48.87-3.03 3.2-4.78 13.83-10.25 19.64-12.55 7.97-3.15 16.37-5.98 27.18-5.98zm-215.54 33.16c4.08-7.71 14.13-15.56 21.45-20.48 41.44-27.88 93.09-2.49 95.58 6.83-5.14 1.2-7.44 2.98-13.25 4.31-35.04 8-45.53-18.88-90.78 3.83-3.72 1.87-8.78 5.17-13.01 5.52zm130.69-25.36c6.96-1.62 1.14-2.93 13.65-2.93 5.39 0 6.52 1.95 10.73 2.93-1.78 6.68-9.92 7.95-11.7 14.63-3.16-2.12-10.78-11.01-12.68-14.63zm-44.86-41.94c4.16 2.78 7.01 6.94 12.09 10.34 19.74 13.19 36.48-2.54 42.53-2.54 16.04 0 14.99 7.8 29.26 7.8 17.57 0 23.46-11.07 30.23-15.6 5.18 3.47 11.55 12.72 14.63 18.53-15.68 1.3-27.66 4.93-40.98 11.69-10.75 5.46-1.76 3.14-15.9-3.58-14.34-6.81-33.54-1.67-39.68 7.49-11.64-7.8-28.84-14.11-46.81-15.6 3.08-5.81 9.45-15.06 14.63-18.53zm182.38 31.21c-5.48-2.9-11.48-5.7-17.66-7.69-3.18-1.03-6.42-1.86-10.04-2.64-1.77-.38-3.23-.54-4.93-.93-4.74-1.07-2.25.59-4.43-2.39 18.21 0 26.66-5.13 36.32-16.34 4.79-5.56 4.2-6.97 6.59-11.94 6.53 4.37 11.68 12.92 9.88 22.48-1.36 7.24-4.76 12.18-10.44 15.97-1.2.8-1.48.92-2.41 1.49l-1.23.72c-1.8 1.2-.7.46-1.65 1.28zM161.9 302.86h-42.91v-13.65h47.79c-.14 6.43-3.56 8.02-4.88 13.65zm42.91-29.26c3.96-.92 4.67-2.41 8.42-4.26 19.89-9.76 42.29-11.23 63.39-4.16 9.23 3.09 16.16 7.78 18.89 8.42-15.04 22.46-31.05 2.93-44.86 2.93-16.47 0-13.6 7.8-30.23 7.8-5.63 0-13.22-7.16-15.6-10.73zm107.28-9.75c0-8.56 1.66-13.02 7.54-18.8 21.58-21.2 60.21 4.01 45.13 28.55-7.37 12-23.96 16.52-35.03 11.61-.01 0-17.64-15.9-17.64-21.37zm-129.71 8.78V20.03c3.12-2.09 3.88-4.88 8.78-4.88 10.76 0 8.78 11.88 8.78 22.43v222.37c-5.87 1.57-14.11 10.37-17.56 12.68zm33.16-21.46V144.86h17.56v102.41c-7.92 0-11.2 3.37-17.56 3.9zm-99.48-118.01V20.03c3.12-2.09 3.88-4.88 8.78-4.88 4.82 0 8.78 3.96 8.78 8.78v109.23c0 2.58-.75 4.25-2.16 5.64-6.47 6.32-15.39 1.78-15.39-5.64z" style="fill:current"/></svg>