<svg xmlns="http://www.w3.org/2000/svg" xml:space="preserve" width="135.45mm" height="111.168mm" style="shape-rendering:geometricPrecision;text-rendering:geometricPrecision;image-rendering:optimizeQuality;fill-rule:evenodd;clip-rule:evenodd" viewBox="0 0 508.36 417.22">
  <path d="M338.57 312.26v-57.59h22.84v57.59c0 17.36-22.84 17.36-22.84 0zM158.86 133.54c0 13.27 23.02 14.47 18.12.84-4.33-12.06-18.12-9.91-18.12-.84zm-71.27 82.19c3.01 7.49 14.68 7.8 14.68-2.76 0-18.6-22.66-17.07-14.68 2.76zm116.95 5.18c17.31 0 16.02-29.6-.89-16.78-12.71 9.64-4.56 16.78.89 16.78zm-73.47-28.79c0-20.43 27.8-18.47 27.8-.99 0 19.29-27.8 19.1-27.8.99zm-7.72 19.64c15.05 15.27 40.41 11.07 48.77-8.38 8.58-19.94-5.9-40.59-26.4-41.52-26.21-1.19-40.67 31.33-22.37 49.9zM350.5 368.85c15.06 0 15.06 31.77 0 31.77-17.09 0-16.5-31.77 0-31.77zm-18.61 40.45c33.68 28.74 60.4-28.51 36.23-49.13-33.76-28.79-60.34 28.55-36.23 49.13zm-116.42-29.53v-81.42h18.86v84.4c0 10.89-18.86 12.77-18.86-2.98zm34.75-23.83v-57.59h18.87v57.59c0 11.89-18.87 11.89-18.87 0zm-88.37-66.52c0 4.52 2.37 7.94 7.94 7.94h30.78v87.37c0 26.43 49.64 33.71 49.64-5.96 13.5 6.48 34.75-1.99 34.75-26.81v-54.61c11.93 0 23.83 2.44 23.83-7.94 0-6.03-5.01-7.94-10.92-7.94h-126.1c-5.92 0-9.93 2.03-9.93 7.94zM.01 279.61V250.7c0-7.37 3.34-9.85 7.2-13.65 8.56-8.46 57.71-59.54 62.14-61.05 4.62-1.57 10.09 2.27 10.09 8.18 0 5.09-13.8 15.27-16.88 19.86 3.5 5.22 7.98 8.95 10.52 15.29 1.9 4.75 5 15.01 2.38 20.45h170.78c0-57.79 71.49-57.56 71.49 0h64.54c-1.19-4.45-24.19-30.64-28.03-34.52-9.1-9.19-7.48-11.3-19.61-11.17-10.5.11-22.85 2.48-22.85-7.93 0-6.85 7.71-7.94 14.89-7.94-9.53-8.29-19.17-17.71-29.79-24.82-1.9 2.84-4.44 4.36-7.25 6.65-9.96 8.13-22.96 11.22-36.44 11.22-35.12 0-61.23-37.14-51.23-70.11 2.87-9.47 2.82-6.02-2.4-13.29-2.1-2.93-6.03-9.98-6.94-13.91-7.16 4.8-61.83 61.34-72.73 72.23-4.77 4.77-19.42 22.09-25.57 22.09-4.26 0-7.94-2.59-7.94-7.94 0-6.04 89.13-92.02 99.57-101.99 8.47-8.08 2.29-31.73 29.68-49.75 26.75-17.6 56.18-5.22 80.64 10.36 5.18 3.3 4.98 14.29-2.37 14.29-12.4 0-28.64-17.87-47.66-17.87-34.06 0-51.51 37.51-34.78 62.58 6.75 10.12 15.43 14.03 26.19 19.49 38.68 19.63 67.92 42.79 100.64 70.14 10.67 8.92 34.68 34.35 43.99 46.36 3.24 4.1 11.05 15.31 14.88 17.88.35-15.65 13.21-30.85 24.6-37.95 11.76-7.33 27.73-11.03 41.92-7.72C430.97 137.31 367.87 78.77 318 49.86c-8.64-5.01-5.96-15.61.71-15.61 7.63 0 25.23 14.24 31.78 18.86 17.12 12.08 66 51.1 79 67.94 5.56 7.2 12.1 13.27 18.05 19.68 17.47 18.78 32.73 41.07 46.9 62.31 6.1 9.14 13.9 19.72 13.9 34.75 0 13.8-2.1 23.5-9.32 34.37-4.9 7.39-10.74 13.16-18.48 17.26 0 9.56 1.09 30.16-.37 38.35-3.47 19.39-25.9 25.98-38.76 11.71-8.42-9.34-5.54-30.08-5.54-42.11h-36.74c-7.8 0-11.01-10.27-4.3-14.23 5.75-3.39 33.37-1.66 41.04-1.66 0-18.95 2.34-13.52-5.13-22.67-5.91-7.23-7.65-17.58-4.96-26.14 7.67-24.42 42.5-26.13 52.42-2.45 3.7 8.84 2.35 27.11 2.35 39.35 16.39-10.98 16.9-42.53.26-57.85-25.18-23.18-66.27-8.72-68.8 26.05-1.29 17.78-10.04 17.16-27.83 16.85-8.4-.15-8.09-.45-7.94 7.94l.06 44.74c6.23 37.48-48.2 48.64-52.34 5.29-2.28-23.9 3.24-57.92-3.26-57.92H159.85c-10.01 0-12.97 36.66-12.88 45.7.06 5.95-.57 12.88-5.98 12.88-7.68 0-9.93-3.56-9.93-11.91 0-18.28 2.89-34.07 8.94-46.67h-37.73c1.01 4.33 2.71 8.72 3.8 13.08 4.71 18.89-1.01 83.88 4.26 91.05 4.14 5.64 14.06 6.98 19.01.38 2.35-3.14 1.8-6.14 1.74-11.17-.07-5.67-.93-17.88 6.94-17.88 12.34 0 8.94 15.37 8.94 23.83 0 23.29-30.52 33.36-46.34 17.54-17.69-17.69-4-72.04-8.97-97.26-1.51-7.68-4.82-13.43-6.25-19.57H14.91c0 8.67-.95 18.47.99 26.81h35.74c11.43 0 26.81-2.62 26.81 8.94 0 3.89-3.69 6.95-7.94 6.95H17.89c-4.81 0-9.5-2.2-12.21-4.67-3.35-3.05-4.95-7.66-5.66-13.09zm439.85-38.84c0-14.7 24.82-17.45 24.82.99v84.4c0 4.94-13.13 11.95-12.96-4.91.09-9.51.98-55.37-.52-61.04-2.83-10.74-11.34-8.53-11.34-19.43zM51.4 214.71c2.4 3.46 3.77 3.55 5.91 7.48 1.66 3.04 3.27 6.39 3.27 10.63v6.95H26.82L51.4 214.7zm250.45 25.07h-39.72c-2.73-32.78 39.72-41.36 39.72 0zm-85.39-135.03c4.38 1.02 30.83 16.41 34.81 18.81 5.82 3.51 31.44 17.15 32.71 21.9-4.31 1.15-19.65 18.12-44.69 6.96-22.78-10.15-23.29-27.13-22.83-47.67z" style="fill:current"/>
</svg>
