<svg xmlns="http://www.w3.org/2000/svg" xml:space="preserve" width="135.381mm" height="94.1801mm" style="shape-rendering:geometricPrecision;text-rendering:geometricPrecision;image-rendering:optimizeQuality;fill-rule:evenodd;clip-rule:evenodd" viewBox="0 0 614.9 427.77"><path d="M60.08 334.65h495.05c0 12.16-5.35 25.59-9.61 33.64-30.42 0-25.99-8.78-48.03-14.45-36.74-9.46-48.53 14.45-70.93 14.45-28.06 0-33.64-16.82-60.08-16.82-25.34 0-39.85 16.82-54.07 16.82-18.36 0-16.74-.53-34.84-9.62-25.12-12.62-43.14-6.75-66.1 4.82-19.27 9.71-37.25-.84-37.25 13.22 0 10.97 10.65 10.81 18.02 10.81 26.93 0 32.68-16.82 58.88-16.82 20.71 0 28.08 16.82 57.68 16.82 25.59 0 34.4-16.82 56.47-16.82 26.62 0 45.63 30.77 87.72 9.62 10.3-5.18 16.15-9.62 30.03-9.62 18.97 0 29.55 14.18 46.86 15.62-8.87 13.24-36.24 21.63-51.67 21.63H136.96c-11.97 0-20.77-2.8-29.68-6.37-7.65-3.07-17.31-8.27-21.99-15.26 18.58-1.55 30.57-18.26 52.78-15.53 10.31 1.27 4.31 3.94 15.71-3.69 0-9.67-.36-15.62-20.43-15.62-29.02 0-31.74 16.82-61.28 16.82h-2.4c-4.07-7.69-9.61-22.06-9.61-33.64zM0 304.62v-7.33c.97-9.57 5.66-18.5 12.71-23.22 16.9-11.32 39.65-7.91 60.58-7.91-6.3-11.9-11.65-19.11-15.14-32.92-5.1-20.18-2.74-46.12 7.94-64.39 7.9-13.52 16.44-24.03 29.53-32.95 6.38-4.34 12.53-8.1 20.45-10.79 6.7-2.27 17.75-5.36 25.7-5.54-4.09-8.53-5.66-26.29-3.89-37.54 5.39-34.28 21-57.39 52.75-73.41 27.31-13.78 72.42-11.08 96.24 11.51 6.21 5.89 17.14 13.62 19.52 22.54h2.4c1.51-5.67 7.3-11.84 13.22-13.22 5.7 1.33 8.29 3.92 9.61 9.61 0 5.42-7.44 12.42-10.03 17.61-10.02 20.1-13.37 44.86-3.19 64.1 17 0 31.68 8.74 42.06 15.62 15.39 10.2 22.16 24.83 27.64 28.84 10.56-19.96 25.17-25.8 30.04-32.44-12.18 2.84-27.04 12.48-49.66 2.8-9.1-3.89-16.21-9.99-21.97-17.68-9.45-12.61-13.25-31.01-7.33-46.06 16.33-41.56 74.81-35.17 77.79 4.47.73 9.78-1.37 9.25-4.83 14.42-14 0-11.49-1.27-13.9-12.53-5.41-25.27-39.94-18.49-42.52 4.18-1.76 15.48 4.77 28.74 17.93 34.82 22.29 10.3 43.21-6.08 46.23-9.11.17-.17.42-.43.59-.61 8.42-8.98 10.55-16.49 12.62-29.53 1.7-10.74-2.78-21.71-7.33-30.89-2.13-4.3-2.8-4.73-5.21-8.01-1.91-2.59-3.67-4.65-6.33-6.89-29.23-24.6-49.58-6.95-59.72-7.52-4.07-.23-5.7-2.95-8.46-4.8 0-7.23.01-10.65 4.76-13.26 2.45-1.34 8.96-3.19 12.76-4.06 38.02-8.72 74.46 5.81 97.13 36.05 14.79 19.73 24.04 57.41 12.72 81.01 8.33.19 20.34 3.64 26.61 5.83 7.25 2.54 14.62 7.01 20.27 10.97 6.32 4.43 11.12 9.03 16.53 14.71 2.23 2.34 4.82 5.93 6.79 8.83 6.76 9.96 11.38 20.96 13.83 33.03 3.38 16.62 1.78 15 1.27 27.54-.83 20.62-8.33 29.65-16.81 45.67 20.93 0 43.69-3.41 60.58 7.91 15.55 10.41 15.53 36.1 5.2 48.26-7.86 9.25-16.64 12.32-33.34 12.32-1.6 19.18-8.67 42.92-22.52 56.78-7.78 7.79-6.92 8.51-17.33 16.32-14.4 10.79-30.65 16.28-48.97 18.32-27.05 3.01-262.36 1.1-313.72 1.1-35.02 0-62.71 1.5-92.53-20.42-8.43-6.2-15.78-14.08-21.62-22.84-9.82-14.71-15.23-30.21-16.82-49.27-27.47 0-39.27-14.71-40.85-30.03zm34.85-19.24h545.52c22.69 0 20.08 30.04 2.4 30.04H32.44c-8.04 0-14.45-7.65-14.12-15.47.34-8.23 7.13-14.57 16.53-14.57zm352.06-27.64 6.01 8.41h-10.81c1.87-2.79 3.82-4.73 4.81-8.41zm-158.61 0c.98 3.68 2.94 5.62 4.81 8.41H222.3c1.08-1.61 1.55-2.41 2.87-4.34l3.14-4.07zm263.15 8.41v-1.2c21.7 0 41.72-25.8 44.46-27.64-1.94 8.31-12.96 23.46-17.47 26.98-4.7 3.67-20.56 1.85-26.98 1.85zm44.46-31.24.36.36c-.02-.02-.48-.24-.36-.36zm-336.44-74.5c6.46 4.32 11.51 13.09 15.24 20.81 7.01 14.52-3.27 17.44 2.32 48.17 2.67 14.68-14.42 30.28-18.76 36.76-28.84 0-57.68-.03-86.51 0-13 .01-14.72 2.19-26.69-16.56-22.22-34.8-7.96-84.16 27.88-102.41 25.15-12.81 43.42-6.65 61.62 11.72 19.15 19.33 21.32 57.44-3.41 74.13-42.86 28.92-77.27-23.56-48.83-45.22 6.67-5.08 15.81-6.68 24.75-1.41 2.77 1.63 3.54 3.01 5.1 5.71 2.74 4.76 2.05 20.21 13.22 18.42 3.84-.62 5.25-2.84 7.65-4.45 0-13.02-.17-19.78-9.37-30.28-1.11-1.26-6.42-5.18-8.22-6.2-40.71-23.03-87.91 33.24-45.19 76.43 21.62 21.86 59.09 16.13 78.12-2.99 18.64-18.74 25.32-47.08 15.09-72.19-1.44-3.54-3.18-6.97-3.98-10.44zm57.68 58.88c0 15.46 4.24 26.25 11.99 37.27l7.23 9.59h-19.23c-2-2.99-5.49-6.86-8.08-9.94-21.24-25.23-19.79-69.86 5.38-94.9 23.44-23.31 56.07-29.99 86.41-14.92 9.45 4.7 12.96 7.99 19.93 14.92 6.43 6.39 10.21 12.23 14.13 20.71 5.58 12.05-2.61 21.39.88 41.17 2.07 11.72 2.79 11.96-5.27 26.56-3.73 6.75-19.24 16.39-29.27 16.39-20.28 0-24.99 2.3-39.27-5.19l-12.74-8.89c-25.1-25.1-10.42-67.93 16.06-72.33 10.21-1.7 17.74-.43 25.4 4.44 21.33 13.56 13.85 44.72-7.47 44.72-13.54 0-15.22-14.24-26.01-5.59-10.43 8.37 6.76 24.81 27.21 24.81 19.17 0 37.25-19.21 37.25-38.45 0-14.18-2.87-27.83-14.9-36.77-17.88-13.29-39.44-17.5-59.37-6.25-4.16 2.35-4.27 2.51-7.78 5.43-2.62 2.18-1.81.8-3.97 3.24-1.21 1.36-1.55 2.27-3.19 4.02-8.21 8.77-15.33 23.39-15.33 39.95zm-57.68-58.88-1.2-1.2 1.2 1.2zm-1.2-1.2h-1.2l1-1.4.2 1.4zm219.89 46.86c0 28.12 16.31 46.78 39.65 56.48 4.03 1.67 4.97 2.4 10.82 2.4l-51.67 1.2c-2.77-4.14-9.56-10.2-14.85-19.99-26.25-48.61 12.68-107.37 59.31-107.37 21.08 0 32.17.87 51.21 14.88 23.79 17.5 23.55 51.19 6.8 73.17-1.54 2.02-1.47 2.31-3.03 4.18-13.63 16.27-45.01 24.73-64.9 6.63-28.75-26.16-9.53-61.6 15.94-61.6 17.99 0 28.87 20.31 19.48 32.7-3.06 4.04-4.01 3.43-7.48 5.73-9.46 6.29-1.48 14.6.02 16.84 9.46 0 15.1-.96 22.86-11.99 25.86-36.77-26.19-89.5-70.63-45.4-6.47 6.42-13.51 19.72-13.51 32.15zm2.4-74.5-2.4 1.2 2.4-1.2zm30.04-73.3c.78.89.75.43 1.57 2.03 1.03 2 .5 1.33 1.34 3.47 5.12 13.02 7.34 28.08 4.6 41.67-1.26 6.23-3.47 10-3.91 15.31-13.43 0-27.2 9.31-33.64 10.81 1.85-2.52 17.99-11.74 25.26-27.61 2.44-5.32 5.15-13.76 5.9-20.54 1.06-9.55-1.12-17.65-1.12-25.15zm0 0-1.38-2.34 1.38 2.34zM261.95 27.03c12.29 2.86 26.45 19.32 32.45 31.24 2.73 5.43 3.68 4.42 2.2 10.51-3.69 15.19-4.16 26.77-.92 42.28 3 14.36 3.94 6.25-14.37 12.23-8.18 2.67-15.28 5.52-22.25 10.19-12.02 8.04-6.97 3.76-17.24 14-7.12 7.1-12.02 15.75-14.72 17.73-2.11-3.99-2.24-4.56-5-8.22-5.27-6.97-14.34-15.62-21.23-20.83-7.36-5.56-27.57-15.41-39.86-15.41-.77-9.27-9.6-21.16-2.19-49.05 3.47-13.04 12.86-26.12 23.31-33.17 45.75-30.88 105.04 17.83 77.68 60.86-3.33 5.23-9.43 11.63-14.84 14-7.19 3.15-14.92 4.06-23.42 2.11-29.59-6.78-25.66-45.99-4.08-47.66 14.15-1.1 10.57 6.06 22.86 6.06l6.28-5.73c-.27-4.83-.16-7.57-2.37-10.19-7.37-8.75-31.74-14.5-46.88-1.81-27.26 22.86-19.03 65.35 17.56 76.79 49.71 15.54 90.37-44.79 59.29-91.74-4.21-6.36-8.69-8.84-12.26-14.17zm0 0h-1.2l1-1.4.2 1.4zm-3.6-2.4.36.36c-.02-.02-.48-.24-.36-.36z" style="fill:current"/></svg>